<svg xmlns="http://www.w3.org/2000/svg" enable-background="new 0 0 512 512" height="512" width="512"><rect id="backgroundrect" width="100%" height="100%" x="0" y="0" fill="none" stroke="none"/><g class="currentLayer" style=""><title>Layer 1</title><g id="svg_1" class="selected" fill="#ffffff" fill-opacity="1"><path d="m512,167.918918967247 c0,-33.41 0,-56.783 0,-59 c0,-24.813 -20.187,-45 -45,-45 h-6 v55 c0,8.284 -6.716,15 -15,15 s-15,-6.716 -15,-15 c0,-16.839 0,-63.232 0,-80 c0,-8.284 -6.716,-15 -15,-15 s-15,6.716 -15,15 v25 h-100 v55 c0,8.284 -6.716,15 -15,15 s-15,-6.716 -15,-15 c0,-16.839 0,-63.232 0,-80 c0,-8.284 -6.716,-15 -15,-15 s-15,6.716 -15,15 v25 h-100 v55 c0,8.284 -6.716,15 -15,15 s-15,-6.716 -15,-15 c0,-16.839 0,-63.232 0,-80 c0,-8.284 -6.716,-15 -15,-15 s-15,6.716 -15,15 v25 h-36 c-24.813,0 -45,20.187 -45,45 v59 z" id="svg_2" fill="#ffffff" fill-opacity="1"/><path d="m0,197.918918967247 v243 c0,24.813 20.187,45 45,45 h422 c24.813,0 45,-20.187 45,-45 c0,-6.425 0,-146.812 0,-243 c-9.335,0 -506.836,0 -512,0 zm144,208 h-32 c-8.284,0 -15,-6.716 -15,-15 s6.716,-15 15,-15 h32 c8.284,0 15,6.716 15,15 s-6.716,15 -15,15 zm0,-64 h-32 c-8.284,0 -15,-6.716 -15,-15 s6.716,-15 15,-15 h32 c8.284,0 15,6.716 15,15 s-6.716,15 -15,15 zm0,-64 h-32 c-8.284,0 -15,-6.716 -15,-15 s6.716,-15 15,-15 h32 c8.284,0 15,6.716 15,15 s-6.716,15 -15,15 zm128,128 h-32 c-8.284,0 -15,-6.716 -15,-15 s6.716,-15 15,-15 h32 c8.284,0 15,6.716 15,15 s-6.716,15 -15,15 zm0,-64 h-32 c-8.284,0 -15,-6.716 -15,-15 s6.716,-15 15,-15 h32 c8.284,0 15,6.716 15,15 s-6.716,15 -15,15 zm0,-64 h-32 c-8.284,0 -15,-6.716 -15,-15 s6.716,-15 15,-15 h32 c8.284,0 15,6.716 15,15 s-6.716,15 -15,15 zm128,128 h-32 c-8.284,0 -15,-6.716 -15,-15 s6.716,-15 15,-15 h32 c8.284,0 15,6.716 15,15 s-6.716,15 -15,15 zm0,-64 h-32 c-8.284,0 -15,-6.716 -15,-15 s6.716,-15 15,-15 h32 c8.284,0 15,6.716 15,15 s-6.716,15 -15,15 zm0,-64 h-32 c-8.284,0 -15,-6.716 -15,-15 s6.716,-15 15,-15 h32 c8.284,0 15,6.716 15,15 s-6.716,15 -15,15 z" id="svg_3" fill="#ffffff" fill-opacity="1"/></g></g></svg>