<svg xmlns="http://www.w3.org/2000/svg" xmlns:xlink="http://www.w3.org/1999/xlink" version="1.1" style="enable-background:new 0 0 511.816 511.816;" xml:space="preserve" width="511.816" height="511.816"><rect id="backgroundrect" width="100%" height="100%" x="0" y="0" fill="none" stroke="none"/>

























<g class="currentLayer" style=""><title>Layer 1</title><g id="svg_1" class="selected" fill="#ffffff" fill-opacity="1">
	<g id="svg_2" fill="#ffffff" fill-opacity="1">
		<path d="M20.949,298.483v160c0,29.419,23.936,53.333,53.333,53.333h384c29.419,0,53.333-23.915,53.333-53.333v-160H20.949z" id="svg_3" fill="#ffffff" fill-opacity="1"/>
	</g>
</g><g id="svg_4" class="selected" fill="#ffffff" fill-opacity="1">
	<g id="svg_5" fill="#ffffff" fill-opacity="1">
		<polygon points="252.757,48.776 172.927,67.72 239.807,166.131 326.271,146.462   " id="svg_6" fill="#ffffff" fill-opacity="1"/>
	</g>
</g><g id="svg_7" class="selected" fill="#ffffff" fill-opacity="1">
	<g id="svg_8" fill="#ffffff" fill-opacity="1">
		<polygon points="150.741,72.99 64.703,93.384 130.879,190.878 217.471,171.187   " id="svg_9" fill="#ffffff" fill-opacity="1"/>
	</g>
</g><g id="svg_10" class="selected" fill="#ffffff" fill-opacity="1">
	<g id="svg_11" fill="#ffffff" fill-opacity="1">
		<path d="M511.274,92.5454594836235 l-18.155,-68.864 c-4.181,-16.747 -21.333,-27.285 -38.251,-23.424 l-71.68,17.024 l68.011,100.267 l52.117,-11.861 c2.837,-0.6400000000000001 5.269,-2.411 6.763,-4.885 S511.999,95.3614594836235 511.274,92.5454594836235 z" id="svg_12" fill="#ffffff" fill-opacity="1"/>
	</g>
</g><g id="svg_13" class="selected" fill="#ffffff" fill-opacity="1">
	<g id="svg_14" fill="#ffffff" fill-opacity="1">
		<polygon points="360.981,23.091 275.413,43.4 349.055,141.299 428.863,123.144   " id="svg_15" fill="#ffffff" fill-opacity="1"/>
	</g>
</g><g id="svg_16" class="selected" fill="#ffffff" fill-opacity="1">
	<g id="svg_17" fill="#ffffff" fill-opacity="1">
		<polygon points="128.447,191.838 94.314,277.15 178.005,277.15 212.138,191.838   " id="svg_18" fill="#ffffff" fill-opacity="1"/>
	</g>
</g><g id="svg_19" class="selected" fill="#ffffff" fill-opacity="1">
	<g id="svg_20" fill="#ffffff" fill-opacity="1">
		<polygon points="235.114,191.838 200.981,277.15 284.671,277.15 318.805,191.838   " id="svg_21" fill="#ffffff" fill-opacity="1"/>
	</g>
</g><g id="svg_22" class="selected" fill="#ffffff" fill-opacity="1">
	<g id="svg_23" fill="#ffffff" fill-opacity="1">
		<path d="M500.949,191.838h-52.501l-34.133,85.333h97.301v-74.667C511.615,196.595,506.858,191.838,500.949,191.838z" id="svg_24" fill="#ffffff" fill-opacity="1"/>
	</g>
</g><g id="svg_25" class="selected" fill="#ffffff" fill-opacity="1">
	<g id="svg_26" fill="#ffffff" fill-opacity="1">
		<polygon points="341.781,191.838 307.647,277.15 391.317,277.15 425.471,191.838   " id="svg_27" fill="#ffffff" fill-opacity="1"/>
	</g>
</g><g id="svg_28" class="selected" fill="#ffffff" fill-opacity="1">
	<g id="svg_29" fill="#ffffff" fill-opacity="1">
		<path d="M42.517,98.675l-17.387,4.117c-8.469,1.92-15.637,7.061-20.181,14.443c-4.544,7.403-5.888,16.107-3.776,24.533    l19.776,78.165v57.216h50.389l32.021-80.021l5.205-1.173L42.517,98.675z" id="svg_30" fill="#ffffff" fill-opacity="1"/>
	</g>
</g><g id="svg_31">
</g><g id="svg_32">
</g><g id="svg_33">
</g><g id="svg_34">
</g><g id="svg_35">
</g><g id="svg_36">
</g><g id="svg_37">
</g><g id="svg_38">
</g><g id="svg_39">
</g><g id="svg_40">
</g><g id="svg_41">
</g><g id="svg_42">
</g><g id="svg_43">
</g><g id="svg_44">
</g><g id="svg_45">
</g></g></svg>