<svg xmlns="http://www.w3.org/2000/svg" xmlns:xlink="http://www.w3.org/1999/xlink" version="1.1" style="enable-background:new -153 -46 652 652;" xml:space="preserve" width="243.42857013105527" height="88.33333212231821"><rect id="backgroundrect" width="100%" height="100%" x="0" y="0" fill="none" stroke="none" class="selected" style=""/>
<style type="text/css">
	.st0{fill:#FF0000;}
</style>

<g class="currentLayer" style=""><title>Layer 1</title>
	
	
	
<path class="st0" d="M45.195252156257624,78.36665458679198 l33,-33 v33 H45.195252156257624 zM78.29525215625762,7.0666545867919695 v17.8 l17.8,-17.8 H78.29525215625762 zM60.39525215625764,24.86665458679198 v-17.8 h-17.8 v17.8 h-17.8 v-17.8 h-17.8 v17.8 h17.8 v53.5 l53.5,-53.5 h0 H60.39525215625764 z" id="svg_3"/><path class="st0" d="M45.195252156257624,78.36665458679198 l33,-33 v33 H45.195252156257624 zM78.29525215625762,7.0666545867919695 v17.8 l17.8,-17.8 H78.29525215625762 zM60.39525215625764,24.86665458679198 v-17.8 h-17.8 v17.8 h-17.8 v-17.8 h-17.8 v17.8 h17.8 v53.5 l53.5,-53.5 h0 H60.39525215625764 z" id="svg_2"/><path d="M123.54763317108154,22.519035601615883 h-9.4 v-14.6 h34 v14.6 h-9.4 v56.7 h-15.3 V22.519035601615883 zM151.84763317108155,79.21903560161593 h15.3 v-71.3 H151.84763317108155 V79.21903560161593 zM173.24763317108153,79.21903560161593 h15.3 v-28.5 h12.6 v-14.3 H188.54763317108154 v-14.1 h14.4 v-14.5 H173.24763317108153 V79.21903560161593 zM206.64763317108157,79.21903560161593 h15.3 v-28.5 h12.6 v-14.3 H221.94763317108152 v-14.1 h14.4 v-14.5 H206.64763317108157 V79.21903560161593 z" id="svg_4" class=""/><path d="M123.54763317108154,22.519035601615883 h-9.4 v-14.6 h34 v14.6 h-9.4 v56.7 h-15.3 V22.519035601615883 zM151.84763317108155,79.21903560161593 h15.3 v-71.3 H151.84763317108155 V79.21903560161593 zM173.24763317108153,79.21903560161593 h15.3 v-28.5 h12.6 v-14.3 H188.54763317108154 v-14.1 h14.4 v-14.5 H173.24763317108153 V79.21903560161593 zM206.64763317108157,79.21903560161593 h15.3 v-28.5 h12.6 v-14.3 H221.94763317108152 v-14.1 h14.4 v-14.5 H206.64763317108157 V79.21903560161593 z" class="" id="svg_1"/></g></svg>