<svg width="415" height="51" viewBox="0 0 415 51" fill="none" xmlns="http://www.w3.org/2000/svg">
<path d="M173.904 4.80981H171.212V0.599688H180.944V4.80981H178.252V21.0982H173.904V4.80981ZM181.358 21.0982H185.637V13.5061C185.637 11.2975 186.396 10.1932 188.052 10.1932H188.121V5.08589C186.81 5.01687 186.12 5.91411 185.637 7.50153V5.29294H181.427V21.0982H181.358ZM188.743 16.681C188.743 19.7178 190.054 21.3742 191.917 21.3742C193.091 21.3742 193.919 20.7531 194.54 19.5797V21.0291H198.75V10.7454C198.75 8.81288 198.267 7.36349 197.301 6.39723C196.404 5.49999 195.092 5.01686 193.367 5.01686C191.986 5.01686 190.675 5.29294 189.571 5.77607V9.71012C190.33 9.36503 191.503 8.95091 192.47 8.95091C193.85 8.95091 194.54 9.71012 194.54 11.1595V11.7807C193.85 11.4356 193.229 11.2285 192.401 11.2285C190.33 11.2285 188.743 12.6779 188.743 16.1978V16.681ZM194.54 16.75C194.54 17.6472 194.057 18.1304 193.574 18.1304C193.022 18.1304 192.677 17.6472 192.677 16.4049V15.8528C192.677 14.6794 193.091 14.0583 193.643 14.0583C193.919 14.0583 194.333 14.1963 194.609 14.3344V16.75H194.54ZM200.614 21.0982H204.893V10.0552C204.893 9.22699 205.307 8.74386 205.79 8.74386C206.342 8.74386 206.687 9.22699 206.687 10.0552V21.0982H210.967V8.95091C210.967 6.60428 209.931 5.01686 207.861 5.01686C206.342 5.01686 205.514 6.05214 204.893 7.15644V5.36196H200.614V21.0982ZM212.485 20.546C213.589 21.0982 214.97 21.3742 216.143 21.3742C218.766 21.3742 220.767 19.5107 220.767 16.681V16.612C220.767 14.2653 219.663 13.023 217.868 11.4356C216.764 10.3313 216.35 9.98619 216.35 9.57208V9.50306C216.35 9.01993 216.695 8.74386 217.316 8.74386C218.144 8.74386 219.111 9.08895 220.077 9.57208V5.49999C219.111 5.1549 218.144 4.94785 217.04 4.94785C214.21 4.94785 212.278 6.67331 212.278 9.43405V9.50306C212.278 11.9187 213.589 13.2301 215.246 14.6795C216.488 15.7837 216.695 16.1288 216.695 16.612C216.695 17.1641 216.35 17.5092 215.729 17.5092C214.901 17.5092 213.727 17.0261 212.485 16.3359V20.546ZM222.147 4.05061H226.496V0.323608H222.147V4.05061ZM222.217 21.0982H226.496V5.29294H222.217V21.0982ZM228.359 21.0982H232.638V0.392631H228.359V21.0982ZM237.193 21.0982H241.542L244.924 5.22392H240.713L239.402 14.4724L238.091 5.22392H233.812L237.193 21.0982ZM245.476 16.681C245.476 19.7178 246.787 21.3742 248.651 21.3742C249.824 21.3742 250.652 20.7531 251.273 19.5797V21.0291H255.483V10.7454C255.483 8.81288 255 7.36349 254.034 6.39723C253.137 5.49999 251.825 5.01686 250.1 5.01686C248.72 5.01686 247.408 5.29294 246.304 5.77607V9.71012C247.063 9.36503 248.236 8.95091 249.203 8.95091C250.583 8.95091 251.273 9.71012 251.273 11.1595V11.7807C250.583 11.4356 249.962 11.2285 249.134 11.2285C247.063 11.2285 245.476 12.6779 245.476 16.1978V16.681ZM251.273 16.75C251.273 17.6472 250.79 18.1304 250.307 18.1304C249.755 18.1304 249.41 17.6472 249.41 16.4049V15.8528C249.41 14.6794 249.755 14.0583 250.376 14.0583C250.652 14.0583 251.066 14.1963 251.342 14.3344V16.75H251.273ZM257.347 21.0982H261.626V10.0552C261.626 9.22699 261.971 8.74386 262.523 8.74386C263.075 8.74386 263.42 9.22699 263.42 10.0552V21.0982H267.7V8.95091C267.7 6.60428 266.664 5.01686 264.594 5.01686C263.075 5.01686 262.247 6.05214 261.626 7.15644V5.36196H257.347V21.0982ZM269.494 4.05061H273.842V0.323608H269.494V4.05061ZM269.563 21.0982H273.842V5.29294H269.563V21.0982ZM275.292 16.681C275.292 19.7178 276.603 21.3742 278.467 21.3742C279.64 21.3742 280.468 20.7531 281.089 19.5797V21.0291H285.299V10.7454C285.299 8.81288 284.816 7.36349 283.85 6.39723C282.953 5.49999 281.641 5.01686 279.916 5.01686C278.536 5.01686 277.224 5.29294 276.12 5.77607V9.71012C276.879 9.36503 277.983 8.95091 279.019 8.95091C280.399 8.95091 281.089 9.71012 281.089 11.1595V11.7807C280.399 11.4356 279.778 11.2285 278.95 11.2285C276.879 11.2285 275.292 12.6779 275.292 16.1978V16.681ZM281.089 16.75C281.089 17.6472 280.606 18.1304 280.123 18.1304C279.571 18.1304 279.226 17.6472 279.226 16.4049V15.8528C279.226 14.6794 279.571 14.0583 280.192 14.0583C280.468 14.0583 280.882 14.1963 281.089 14.3344V16.75ZM291.235 21.0982H295.652V0.6687H291.235V21.0982ZM297.585 21.0982H301.864V10.0552C301.864 9.22699 302.209 8.74386 302.761 8.74386C303.313 8.74386 303.658 9.22699 303.658 10.0552V21.0982H307.937V8.95091C307.937 6.60428 306.902 5.01686 304.832 5.01686C303.313 5.01686 302.485 6.05214 301.864 7.15644V5.36196H297.585V21.0982ZM310.077 18.0613C310.077 20.615 311.664 21.3742 313.597 21.3742C314.494 21.3742 315.46 21.0982 316.082 20.7531V17.3021C315.736 17.4402 315.46 17.5092 315.115 17.5092C314.563 17.5092 314.287 17.2331 314.287 16.681V8.67484H316.082V5.29294H314.287V1.42791H310.077V5.29294H309.18V8.67484H310.077V18.0613ZM317.048 13.6442C317.048 18.7515 319.463 21.3742 322.914 21.3742C324.502 21.3742 325.813 20.8911 326.986 20.1319L326.71 16.3359C325.675 17.0261 324.64 17.5092 323.605 17.5092C322.362 17.5092 321.534 16.819 321.327 14.9555H327.401V12.8159C327.401 7.63956 325.468 4.87883 322.431 4.87883C319.394 4.87883 317.117 7.63956 317.117 12.6779V13.6442H317.048ZM321.189 12.0567C321.258 9.36502 321.672 8.60582 322.293 8.60582C322.983 8.60582 323.328 9.57208 323.328 12.0567H321.189ZM328.919 21.0982H333.198V13.5061C333.198 11.2975 333.957 10.1932 335.614 10.1932H335.683V5.08589C334.371 5.01687 333.681 5.91411 333.198 7.50153V5.29294H328.988V21.0982H328.919ZM336.856 21.0982H341.135V10.0552C341.135 9.22699 341.549 8.74386 342.032 8.74386C342.585 8.74386 342.93 9.22699 342.93 10.0552V21.0982H347.209V8.95091C347.209 6.60428 346.174 5.01686 344.103 5.01686C342.654 5.01686 341.756 6.05214 341.135 7.15644V5.36196H336.856V21.0982ZM348.589 16.681C348.589 19.7178 349.901 21.3742 351.764 21.3742C352.937 21.3742 353.766 20.7531 354.387 19.5797V21.0291H358.597V10.7454C358.597 8.81288 358.114 7.36349 357.148 6.39723C356.25 5.49999 354.939 5.01686 353.213 5.01686C351.833 5.01686 350.522 5.29294 349.348 5.77607V9.71012C350.108 9.36503 351.281 8.95091 352.247 8.95091C353.628 8.95091 354.318 9.71012 354.318 11.1595V11.7807C353.628 11.4356 353.006 11.2285 352.178 11.2285C350.039 11.2285 348.52 12.6779 348.52 16.1978V16.681H348.589ZM354.387 16.75C354.387 17.6472 353.904 18.1304 353.42 18.1304C352.868 18.1304 352.454 17.6472 352.454 16.4049V15.8528C352.454 14.6794 352.799 14.0583 353.42 14.0583C353.697 14.0583 354.111 14.1963 354.318 14.3344V16.75H354.387ZM360.667 18.0613C360.667 20.615 362.255 21.3742 364.187 21.3742C365.085 21.3742 366.051 21.0982 366.672 20.7531V17.3021C366.327 17.4402 366.051 17.5092 365.706 17.5092C365.154 17.5092 364.878 17.2331 364.878 16.681V8.67484H366.672V5.29294H364.878V1.42791H360.598V5.29294H359.701V8.67484H360.598V18.0613H360.667ZM368.121 4.05061H372.47V0.323608H368.121V4.05061ZM368.19 21.0982H372.47V5.29294H368.19V21.0982ZM373.988 13.7822C373.988 18.8205 376.197 21.4432 379.371 21.4432C382.546 21.4432 384.755 18.8205 384.755 13.7822V12.5399C384.755 7.50153 382.546 4.87883 379.44 4.87883C376.266 4.87883 374.057 7.50153 374.057 12.5399V13.7822H373.988ZM380.545 13.8512C380.545 16.612 380.2 17.6472 379.44 17.6472C378.681 17.6472 378.336 16.5429 378.336 13.8512V12.5399C378.336 9.77914 378.681 8.74386 379.44 8.74386C380.2 8.74386 380.545 9.84816 380.545 12.5399V13.8512ZM386.342 21.0982H390.621V10.0552C390.621 9.22699 391.036 8.74386 391.519 8.74386C392.071 8.74386 392.416 9.22699 392.416 10.0552V21.0982H396.695V8.95091C396.695 6.60428 395.66 5.01686 393.589 5.01686C392.14 5.01686 391.243 6.05214 390.621 7.15644V5.36196H386.342V21.0982ZM398.075 16.681C398.075 19.7178 399.456 21.3742 401.25 21.3742C402.424 21.3742 403.252 20.7531 403.873 19.5797V21.0291H408.083V10.7454C408.083 8.81288 407.6 7.36349 406.634 6.39723C405.736 5.49999 404.425 5.01686 402.7 5.01686C401.319 5.01686 400.008 5.29294 398.904 5.77607V9.71012C399.663 9.36503 400.836 8.95091 401.802 8.95091C403.183 8.95091 403.873 9.71012 403.873 11.1595V11.7807C403.183 11.4356 402.562 11.2285 401.733 11.2285C399.663 11.2285 398.075 12.6779 398.075 16.1978V16.681ZM403.873 16.75C403.873 17.6472 403.39 18.1304 402.907 18.1304C402.355 18.1304 401.94 17.6472 401.94 16.4049V15.8528C401.94 14.6794 402.355 14.0583 402.907 14.0583C403.183 14.0583 403.597 14.1963 403.804 14.3344V16.75H403.873ZM409.947 21.0982H414.226V0.392631H409.947V21.0982ZM171.695 50.2929H176.112V42.1488H179.701V38.0767H176.112V34.0736H180.253V29.9325H171.764V50.2929H171.695ZM181.565 33.3144H185.913V29.5874H181.565V33.3144ZM181.565 50.2929H185.844V34.4877H181.565V50.2929ZM187.776 50.2929H192.055V29.5874H187.776V50.2929ZM193.988 50.2929H198.198V39.319C198.198 38.4908 198.543 38.0077 199.095 38.0077C199.647 38.0077 199.924 38.4908 199.924 39.319V50.2929H204.134V39.319C204.134 38.4908 204.548 38.0077 205.031 38.0077C205.583 38.0077 205.928 38.4908 205.928 39.319V50.2929H210.138V38.1457C210.138 35.6611 208.827 34.1426 206.894 34.1426C205.445 34.1426 204.479 35.1089 203.858 36.0752C203.374 34.9709 202.546 34.1426 201.097 34.1426C199.647 34.1426 198.819 35.0399 198.129 36.2132V34.4187H193.919V50.2929H193.988ZM216.143 50.2929H220.491V42.1488H224.149V38.0767H220.491V34.0736H224.632V29.9325H216.143V50.2929ZM225.598 42.908C225.598 48.0153 228.083 50.638 231.465 50.638C233.052 50.638 234.364 50.1549 235.537 49.3957L235.261 45.5997C234.226 46.2899 233.19 46.773 232.155 46.773C230.913 46.773 230.085 46.0828 229.878 44.2193H235.951V42.0798C235.951 36.9034 234.019 34.1426 230.982 34.1426C227.945 34.1426 225.667 36.9034 225.667 41.9417V42.908H225.598ZM229.74 41.3205C229.809 38.6288 230.223 37.8696 230.844 37.8696C231.534 37.8696 231.879 38.8359 231.879 41.3205H229.74ZM237.055 49.7408C238.16 50.2929 239.54 50.638 240.713 50.638C243.336 50.638 245.338 48.7745 245.338 45.9448V45.8758C245.338 43.5291 244.164 42.2178 242.439 40.6994C241.335 39.5951 240.92 39.25 240.92 38.8359V38.7669C240.92 38.2837 241.266 38.0077 241.887 38.0077C242.715 38.0077 243.681 38.3528 244.647 38.8359V34.7638C243.681 34.4187 242.715 34.2117 241.611 34.2117C238.781 34.2117 236.848 35.9371 236.848 38.6979V38.7669C236.848 41.1825 238.16 42.4939 239.816 43.9433C241.059 45.0476 241.266 45.3926 241.266 45.8758C241.266 46.4279 240.92 46.773 240.299 46.773C239.471 46.773 238.298 46.2899 237.055 45.5997V49.7408ZM246.994 47.2561C246.994 49.8098 248.582 50.569 250.514 50.569C251.411 50.569 252.378 50.2929 252.999 49.9478V46.5659C252.654 46.704 252.378 46.773 252.032 46.773C251.48 46.773 251.204 46.4969 251.204 45.9448V37.9386H252.999V34.4877H251.204V30.6227H246.925V34.4877H246.028V37.9386H246.925V47.2561H246.994ZM254.448 33.3144H258.796V29.5874H254.448V33.3144ZM254.448 50.2929H258.727V34.4877H254.448V50.2929ZM263.282 50.362H267.631L271.013 34.4877H266.802L265.491 43.7362L264.18 34.4877H259.901L263.282 50.362ZM271.565 45.8758C271.565 48.9126 272.945 50.569 274.74 50.569C275.913 50.569 276.741 49.9479 277.362 48.7745V50.2239H281.572V39.9402C281.572 38.0077 281.089 36.5583 280.123 35.592C279.226 34.6948 277.914 34.2117 276.189 34.2117C274.809 34.2117 273.497 34.4877 272.393 34.9709V38.9049C273.152 38.5598 274.325 38.1457 275.292 38.1457C276.672 38.1457 277.362 38.8359 277.362 40.3543V40.9755C276.672 40.5613 276.051 40.3543 275.223 40.3543C273.152 40.3543 271.565 41.8037 271.565 45.3236V45.8758ZM277.362 46.0138C277.362 46.9801 276.879 47.3942 276.396 47.3942C275.844 47.3942 275.499 46.911 275.499 45.6687V45.1166C275.499 43.9432 275.844 43.3221 276.465 43.3221C276.741 43.3221 277.155 43.4601 277.362 43.5982V46.0138ZM283.436 50.2929H287.715V29.5874H283.436V50.2929Z" fill="black"/>
<path d="M26.4803 49.8788L49.2563 27.1028V49.8788H26.4803ZM49.3254 0.668716V12.954L61.6106 0.668716H49.3254ZM36.9711 12.954V0.668716H24.6858V12.954H12.4005V0.668716H0.115234V12.954H12.4005V49.8788L49.3254 12.954H36.9711Z" fill="white"/>
<path d="M79.9003 10.6764H73.4126V0.599678H96.8789V10.6764H90.3911V49.8098H79.8313V10.6764H79.9003ZM99.4325 49.8098H109.992V0.599678H99.4325V49.8098ZM114.202 49.8098H124.762V30.1396H133.459V20.2699H124.762V10.5383H134.701V0.530655H114.202V49.8098ZM137.255 49.8098H147.814V30.1396H156.511V20.2699H147.814V10.5383H157.753V0.530655H137.255V49.8098Z" fill="black"/>
</svg>
